<svg width="913" height="968" viewBox="0 0 913 968" fill="none" xmlns="http://www.w3.org/2000/svg">
<g opacity="0.6" clip-path="url(#clip0)">
<path d="M-94.9533 356.268C-33.577 285.781 87.6289 376.97 263.25 337.061C415.359 302.479 424.11 210.622 545.642 215.177C634.431 218.487 731.183 269.755 784.356 359.072C842.997 457.551 821.68 557.81 815.696 582.139C788.983 691.263 709.698 748.826 681.728 768.487C566.488 849.44 437.173 835.254 375.136 828.479C142.1 802.957 -107.386 636.583 -118.495 455.701C-119.971 432.021 -122.658 388.098 -94.9533 356.268Z" fill="url(#paint0_linear)"/>
</g>
<defs>
<linearGradient id="paint0_linear" x1="489.823" y1="69.8268" x2="255.583" y2="775.635" gradientUnits="userSpaceOnUse">
<stop stop-color="#F3F7FF"/>
<stop offset="1" stop-color="#DEEEFE"/>
</linearGradient>
<clipPath id="clip0">
<rect width="937.962" height="671.376" fill="white" transform="translate(39.5776) rotate(21.4558)"/>
</clipPath>
</defs>
</svg>
