<svg width="118" height="115" viewBox="0 0 118 115" fill="none" xmlns="http://www.w3.org/2000/svg">
<g opacity="0.3">
<mask id="mask0" mask-type="alpha" maskUnits="userSpaceOnUse" x="16" y="0" width="11" height="11">
<path d="M21.5095 10.425C24.397 10.425 26.7378 8.09121 26.7378 5.21245C26.7378 2.33368 24.397 0 21.5095 0C18.6219 0 16.2811 2.33368 16.2811 5.21245C16.2811 8.09121 18.6219 10.425 21.5095 10.425Z" fill="url(#paint0_linear)"/>
</mask>
<g mask="url(#mask0)">
<path d="M21.5095 10.425C24.397 10.425 26.7378 8.09121 26.7378 5.21245C26.7378 2.33368 24.397 0 21.5095 0C18.6219 0 16.2811 2.33368 16.2811 5.21245C16.2811 8.09121 18.6219 10.425 21.5095 10.425Z" fill="url(#paint1_linear)"/>
</g>
<mask id="mask1" mask-type="alpha" maskUnits="userSpaceOnUse" x="46" y="0" width="12" height="11">
<path d="M51.7905 10.425C54.6781 10.425 57.0189 8.09121 57.0189 5.21245C57.0189 2.33368 54.6781 0 51.7905 0C48.903 0 46.5621 2.33368 46.5621 5.21245C46.5621 8.09121 48.903 10.425 51.7905 10.425Z" fill="url(#paint2_linear)"/>
</mask>
<g mask="url(#mask1)">
<path d="M51.7905 10.425C54.6781 10.425 57.0189 8.09121 57.0189 5.21245C57.0189 2.33368 54.6781 0 51.7905 0C48.903 0 46.5621 2.33368 46.5621 5.21245C46.5621 8.09121 48.903 10.425 51.7905 10.425Z" fill="url(#paint3_linear)"/>
</g>
<mask id="mask2" mask-type="alpha" maskUnits="userSpaceOnUse" x="76" y="0" width="12" height="11">
<path d="M82.0716 10.425C84.9592 10.425 87.3 8.09121 87.3 5.21245C87.3 2.33368 84.9592 0 82.0716 0C79.184 0 76.8432 2.33368 76.8432 5.21245C76.8432 8.09121 79.184 10.425 82.0716 10.425Z" fill="url(#paint4_linear)"/>
</mask>
<g mask="url(#mask2)">
<path d="M82.0716 10.425C84.9592 10.425 87.3 8.09121 87.3 5.21245C87.3 2.33368 84.9592 0 82.0716 0C79.184 0 76.8432 2.33368 76.8432 5.21245C76.8432 8.09121 79.184 10.425 82.0716 10.425Z" fill="url(#paint5_linear)"/>
</g>
<mask id="mask3" mask-type="alpha" maskUnits="userSpaceOnUse" x="107" y="0" width="11" height="11">
<path d="M112.353 10.425C115.24 10.425 117.581 8.09121 117.581 5.21245C117.581 2.33368 115.24 0 112.353 0C109.465 0 107.124 2.33368 107.124 5.21245C107.124 8.09121 109.465 10.425 112.353 10.425Z" fill="url(#paint6_linear)"/>
</mask>
<g mask="url(#mask3)">
<path d="M112.353 10.425C115.24 10.425 117.581 8.09121 117.581 5.21245C117.581 2.33368 115.24 0 112.353 0C109.465 0 107.124 2.33368 107.124 5.21245C107.124 8.09121 109.465 10.425 112.353 10.425Z" fill="url(#paint7_linear)"/>
</g>
<mask id="mask4" mask-type="alpha" maskUnits="userSpaceOnUse" x="16" y="26" width="11" height="11">
<path d="M21.5095 36.5958C24.397 36.5958 26.7378 34.2621 26.7378 31.3834C26.7378 28.5046 24.397 26.171 21.5095 26.171C18.6219 26.171 16.2811 28.5046 16.2811 31.3834C16.2811 34.2621 18.6219 36.5958 21.5095 36.5958Z" fill="url(#paint8_linear)"/>
</mask>
<g mask="url(#mask4)">
<path d="M21.5095 36.5958C24.397 36.5958 26.7378 34.2621 26.7378 31.3834C26.7378 28.5046 24.397 26.171 21.5095 26.171C18.6219 26.171 16.2811 28.5046 16.2811 31.3834C16.2811 34.2621 18.6219 36.5958 21.5095 36.5958Z" fill="url(#paint9_linear)"/>
</g>
<mask id="mask5" mask-type="alpha" maskUnits="userSpaceOnUse" x="46" y="26" width="12" height="11">
<path d="M51.7905 36.5958C54.6781 36.5958 57.0189 34.2621 57.0189 31.3834C57.0189 28.5046 54.6781 26.171 51.7905 26.171C48.903 26.171 46.5621 28.5046 46.5621 31.3834C46.5621 34.2621 48.903 36.5958 51.7905 36.5958Z" fill="url(#paint10_linear)"/>
</mask>
<g mask="url(#mask5)">
<path d="M51.7905 36.5958C54.6781 36.5958 57.0189 34.2621 57.0189 31.3834C57.0189 28.5046 54.6781 26.171 51.7905 26.171C48.903 26.171 46.5621 28.5046 46.5621 31.3834C46.5621 34.2621 48.903 36.5958 51.7905 36.5958Z" fill="url(#paint11_linear)"/>
</g>
<mask id="mask6" mask-type="alpha" maskUnits="userSpaceOnUse" x="76" y="26" width="12" height="11">
<path d="M82.0716 36.5958C84.9592 36.5958 87.3 34.2621 87.3 31.3834C87.3 28.5046 84.9592 26.171 82.0716 26.171C79.184 26.171 76.8432 28.5046 76.8432 31.3834C76.8432 34.2621 79.184 36.5958 82.0716 36.5958Z" fill="url(#paint12_linear)"/>
</mask>
<g mask="url(#mask6)">
<path d="M82.0716 36.5958C84.9592 36.5958 87.3 34.2621 87.3 31.3834C87.3 28.5046 84.9592 26.171 82.0716 26.171C79.184 26.171 76.8432 28.5046 76.8432 31.3834C76.8432 34.2621 79.184 36.5958 82.0716 36.5958Z" fill="url(#paint13_linear)"/>
</g>
<mask id="mask7" mask-type="alpha" maskUnits="userSpaceOnUse" x="107" y="26" width="11" height="11">
<path d="M112.353 36.5958C115.24 36.5958 117.581 34.2621 117.581 31.3834C117.581 28.5046 115.24 26.171 112.353 26.171C109.465 26.171 107.124 28.5046 107.124 31.3834C107.124 34.2621 109.465 36.5958 112.353 36.5958Z" fill="url(#paint14_linear)"/>
</mask>
<g mask="url(#mask7)">
<path d="M112.353 36.5958C115.24 36.5958 117.581 34.2621 117.581 31.3834C117.581 28.5046 115.24 26.171 112.353 26.171C109.465 26.171 107.124 28.5046 107.124 31.3834C107.124 34.2621 109.465 36.5958 112.353 36.5958Z" fill="url(#paint15_linear)"/>
</g>
<mask id="mask8" mask-type="alpha" maskUnits="userSpaceOnUse" x="16" y="52" width="11" height="11">
<path d="M21.5095 62.7125C24.397 62.7125 26.7378 60.3788 26.7378 57.5C26.7378 54.6212 24.397 52.2875 21.5095 52.2875C18.6219 52.2875 16.2811 54.6212 16.2811 57.5C16.2811 60.3788 18.6219 62.7125 21.5095 62.7125Z" fill="url(#paint16_linear)"/>
</mask>
<g mask="url(#mask8)">
<path d="M21.5095 62.7125C24.397 62.7125 26.7378 60.3788 26.7378 57.5C26.7378 54.6212 24.397 52.2875 21.5095 52.2875C18.6219 52.2875 16.2811 54.6212 16.2811 57.5C16.2811 60.3788 18.6219 62.7125 21.5095 62.7125Z" fill="url(#paint17_linear)"/>
</g>
<mask id="mask9" mask-type="alpha" maskUnits="userSpaceOnUse" x="46" y="52" width="12" height="11">
<path d="M51.7905 62.7125C54.6781 62.7125 57.0189 60.3788 57.0189 57.5C57.0189 54.6212 54.6781 52.2875 51.7905 52.2875C48.903 52.2875 46.5621 54.6212 46.5621 57.5C46.5621 60.3788 48.903 62.7125 51.7905 62.7125Z" fill="url(#paint18_linear)"/>
</mask>
<g mask="url(#mask9)">
<path d="M51.7905 62.7125C54.6781 62.7125 57.0189 60.3788 57.0189 57.5C57.0189 54.6212 54.6781 52.2875 51.7905 52.2875C48.903 52.2875 46.5621 54.6212 46.5621 57.5C46.5621 60.3788 48.903 62.7125 51.7905 62.7125Z" fill="url(#paint19_linear)"/>
</g>
<mask id="mask10" mask-type="alpha" maskUnits="userSpaceOnUse" x="76" y="52" width="12" height="11">
<path d="M82.0716 62.7125C84.9592 62.7125 87.3 60.3788 87.3 57.5C87.3 54.6212 84.9592 52.2875 82.0716 52.2875C79.184 52.2875 76.8432 54.6212 76.8432 57.5C76.8432 60.3788 79.184 62.7125 82.0716 62.7125Z" fill="url(#paint20_linear)"/>
</mask>
<g mask="url(#mask10)">
<path d="M82.0716 62.7125C84.9592 62.7125 87.3 60.3788 87.3 57.5C87.3 54.6212 84.9592 52.2875 82.0716 52.2875C79.184 52.2875 76.8432 54.6212 76.8432 57.5C76.8432 60.3788 79.184 62.7125 82.0716 62.7125Z" fill="url(#paint21_linear)"/>
</g>
<mask id="mask11" mask-type="alpha" maskUnits="userSpaceOnUse" x="107" y="52" width="11" height="11">
<path d="M112.353 62.7125C115.24 62.7125 117.581 60.3788 117.581 57.5C117.581 54.6212 115.24 52.2875 112.353 52.2875C109.465 52.2875 107.124 54.6212 107.124 57.5C107.124 60.3788 109.465 62.7125 112.353 62.7125Z" fill="url(#paint22_linear)"/>
</mask>
<g mask="url(#mask11)">
<path d="M112.353 62.7125C115.24 62.7125 117.581 60.3788 117.581 57.5C117.581 54.6212 115.24 52.2875 112.353 52.2875C109.465 52.2875 107.124 54.6212 107.124 57.5C107.124 60.3788 109.465 62.7125 112.353 62.7125Z" fill="url(#paint23_linear)"/>
</g>
<mask id="mask12" mask-type="alpha" maskUnits="userSpaceOnUse" x="16" y="78" width="11" height="11">
<path d="M21.5095 88.8834C24.397 88.8834 26.7378 86.5496 26.7378 83.6709C26.7378 80.7921 24.397 78.4584 21.5095 78.4584C18.6219 78.4584 16.2811 80.7921 16.2811 83.6709C16.2811 86.5496 18.6219 88.8834 21.5095 88.8834Z" fill="url(#paint24_linear)"/>
</mask>
<g mask="url(#mask12)">
<path d="M21.5095 88.8834C24.397 88.8834 26.7378 86.5496 26.7378 83.6709C26.7378 80.7921 24.397 78.4584 21.5095 78.4584C18.6219 78.4584 16.2811 80.7921 16.2811 83.6709C16.2811 86.5496 18.6219 88.8834 21.5095 88.8834Z" fill="url(#paint25_linear)"/>
</g>
<mask id="mask13" mask-type="alpha" maskUnits="userSpaceOnUse" x="46" y="78" width="12" height="11">
<path d="M51.7905 88.8834C54.6781 88.8834 57.0189 86.5496 57.0189 83.6709C57.0189 80.7921 54.6781 78.4584 51.7905 78.4584C48.903 78.4584 46.5621 80.7921 46.5621 83.6709C46.5621 86.5496 48.903 88.8834 51.7905 88.8834Z" fill="url(#paint26_linear)"/>
</mask>
<g mask="url(#mask13)">
<path d="M51.7905 88.8834C54.6781 88.8834 57.0189 86.5496 57.0189 83.6709C57.0189 80.7921 54.6781 78.4584 51.7905 78.4584C48.903 78.4584 46.5621 80.7921 46.5621 83.6709C46.5621 86.5496 48.903 88.8834 51.7905 88.8834Z" fill="url(#paint27_linear)"/>
</g>
<mask id="mask14" mask-type="alpha" maskUnits="userSpaceOnUse" x="76" y="78" width="12" height="11">
<path d="M82.0716 88.8834C84.9592 88.8834 87.3 86.5496 87.3 83.6709C87.3 80.7921 84.9592 78.4584 82.0716 78.4584C79.184 78.4584 76.8432 80.7921 76.8432 83.6709C76.8432 86.5496 79.184 88.8834 82.0716 88.8834Z" fill="url(#paint28_linear)"/>
</mask>
<g mask="url(#mask14)">
<path d="M82.0716 88.8834C84.9592 88.8834 87.3 86.5496 87.3 83.6709C87.3 80.7921 84.9592 78.4584 82.0716 78.4584C79.184 78.4584 76.8432 80.7921 76.8432 83.6709C76.8432 86.5496 79.184 88.8834 82.0716 88.8834Z" fill="url(#paint29_linear)"/>
</g>
<mask id="mask15" mask-type="alpha" maskUnits="userSpaceOnUse" x="107" y="78" width="11" height="11">
<path d="M112.353 88.8834C115.24 88.8834 117.581 86.5496 117.581 83.6709C117.581 80.7921 115.24 78.4584 112.353 78.4584C109.465 78.4584 107.124 80.7921 107.124 83.6709C107.124 86.5496 109.465 88.8834 112.353 88.8834Z" fill="url(#paint30_linear)"/>
</mask>
<g mask="url(#mask15)">
<path d="M112.353 88.8834C115.24 88.8834 117.581 86.5496 117.581 83.6709C117.581 80.7921 115.24 78.4584 112.353 78.4584C109.465 78.4584 107.124 80.7921 107.124 83.6709C107.124 86.5496 109.465 88.8834 112.353 88.8834Z" fill="url(#paint31_linear)"/>
</g>
<mask id="mask16" mask-type="alpha" maskUnits="userSpaceOnUse" x="16" y="104" width="11" height="11">
<path d="M21.5095 115C24.397 115 26.7378 112.666 26.7378 109.788C26.7378 106.909 24.397 104.575 21.5095 104.575C18.6219 104.575 16.2811 106.909 16.2811 109.788C16.2811 112.666 18.6219 115 21.5095 115Z" fill="url(#paint32_linear)"/>
</mask>
<g mask="url(#mask16)">
<path d="M21.5095 115C24.397 115 26.7378 112.666 26.7378 109.788C26.7378 106.909 24.397 104.575 21.5095 104.575C18.6219 104.575 16.2811 106.909 16.2811 109.788C16.2811 112.666 18.6219 115 21.5095 115Z" fill="url(#paint33_linear)"/>
</g>
<mask id="mask17" mask-type="alpha" maskUnits="userSpaceOnUse" x="46" y="104" width="12" height="11">
<path d="M51.7905 115C54.6781 115 57.0189 112.666 57.0189 109.788C57.0189 106.909 54.6781 104.575 51.7905 104.575C48.903 104.575 46.5621 106.909 46.5621 109.788C46.5621 112.666 48.903 115 51.7905 115Z" fill="url(#paint34_linear)"/>
</mask>
<g mask="url(#mask17)">
<path d="M51.7905 115C54.6781 115 57.0189 112.666 57.0189 109.788C57.0189 106.909 54.6781 104.575 51.7905 104.575C48.903 104.575 46.5621 106.909 46.5621 109.788C46.5621 112.666 48.903 115 51.7905 115Z" fill="url(#paint35_linear)"/>
</g>
<mask id="mask18" mask-type="alpha" maskUnits="userSpaceOnUse" x="76" y="104" width="12" height="11">
<path d="M82.0716 115C84.9592 115 87.3 112.666 87.3 109.788C87.3 106.909 84.9592 104.575 82.0716 104.575C79.184 104.575 76.8432 106.909 76.8432 109.788C76.8432 112.666 79.184 115 82.0716 115Z" fill="url(#paint36_linear)"/>
</mask>
<g mask="url(#mask18)">
<path d="M82.0716 115C84.9592 115 87.3 112.666 87.3 109.788C87.3 106.909 84.9592 104.575 82.0716 104.575C79.184 104.575 76.8432 106.909 76.8432 109.788C76.8432 112.666 79.184 115 82.0716 115Z" fill="url(#paint37_linear)"/>
</g>
<mask id="mask19" mask-type="alpha" maskUnits="userSpaceOnUse" x="107" y="104" width="11" height="11">
<path d="M112.353 115C115.24 115 117.581 112.666 117.581 109.788C117.581 106.909 115.24 104.575 112.353 104.575C109.465 104.575 107.124 106.909 107.124 109.788C107.124 112.666 109.465 115 112.353 115Z" fill="url(#paint38_linear)"/>
</mask>
<g mask="url(#mask19)">
<path d="M112.353 115C115.24 115 117.581 112.666 117.581 109.788C117.581 106.909 115.24 104.575 112.353 104.575C109.465 104.575 107.124 106.909 107.124 109.788C107.124 112.666 109.465 115 112.353 115Z" fill="url(#paint39_linear)"/>
</g>
</g>
<defs>
<linearGradient id="paint0_linear" x1="67.2005" y1="120.843" x2="-4.20111" y2="-60.9613" gradientUnits="userSpaceOnUse">
<stop/>
<stop offset="1" stop-color="white"/>
</linearGradient>
<linearGradient id="paint1_linear" x1="67.2005" y1="120.843" x2="-4.20111" y2="-60.9613" gradientUnits="userSpaceOnUse">
<stop stop-color="#97C3F9"/>
<stop offset="1" stop-color="#93C1F9"/>
</linearGradient>
<linearGradient id="paint2_linear" x1="93.4049" y1="110.551" x2="22.0033" y2="-71.2526" gradientUnits="userSpaceOnUse">
<stop/>
<stop offset="1" stop-color="white"/>
</linearGradient>
<linearGradient id="paint3_linear" x1="93.4049" y1="110.551" x2="22.0033" y2="-71.2526" gradientUnits="userSpaceOnUse">
<stop stop-color="#97C3F9"/>
<stop offset="1" stop-color="#93C1F9"/>
</linearGradient>
<linearGradient id="paint4_linear" x1="119.609" y1="100.259" x2="48.2075" y2="-81.5444" gradientUnits="userSpaceOnUse">
<stop/>
<stop offset="1" stop-color="white"/>
</linearGradient>
<linearGradient id="paint5_linear" x1="119.609" y1="100.259" x2="48.2075" y2="-81.5444" gradientUnits="userSpaceOnUse">
<stop stop-color="#97C3F9"/>
<stop offset="1" stop-color="#93C1F9"/>
</linearGradient>
<linearGradient id="paint6_linear" x1="145.813" y1="89.9679" x2="74.4119" y2="-91.8359" gradientUnits="userSpaceOnUse">
<stop/>
<stop offset="1" stop-color="white"/>
</linearGradient>
<linearGradient id="paint7_linear" x1="145.813" y1="89.9679" x2="74.4119" y2="-91.8359" gradientUnits="userSpaceOnUse">
<stop stop-color="#97C3F9"/>
<stop offset="1" stop-color="#93C1F9"/>
</linearGradient>
<linearGradient id="paint8_linear" x1="58.2581" y1="124.354" x2="-13.1423" y2="-57.449" gradientUnits="userSpaceOnUse">
<stop/>
<stop offset="1" stop-color="white"/>
</linearGradient>
<linearGradient id="paint9_linear" x1="58.2581" y1="124.354" x2="-13.1423" y2="-57.449" gradientUnits="userSpaceOnUse">
<stop stop-color="#97C3F9"/>
<stop offset="1" stop-color="#93C1F9"/>
</linearGradient>
<linearGradient id="paint10_linear" x1="84.4624" y1="114.062" x2="13.0621" y2="-67.7403" gradientUnits="userSpaceOnUse">
<stop/>
<stop offset="1" stop-color="white"/>
</linearGradient>
<linearGradient id="paint11_linear" x1="84.4624" y1="114.062" x2="13.0621" y2="-67.7403" gradientUnits="userSpaceOnUse">
<stop stop-color="#97C3F9"/>
<stop offset="1" stop-color="#93C1F9"/>
</linearGradient>
<linearGradient id="paint12_linear" x1="110.667" y1="103.771" x2="39.2663" y2="-78.0318" gradientUnits="userSpaceOnUse">
<stop/>
<stop offset="1" stop-color="white"/>
</linearGradient>
<linearGradient id="paint13_linear" x1="110.667" y1="103.771" x2="39.2663" y2="-78.0318" gradientUnits="userSpaceOnUse">
<stop stop-color="#97C3F9"/>
<stop offset="1" stop-color="#93C1F9"/>
</linearGradient>
<linearGradient id="paint14_linear" x1="136.871" y1="93.4794" x2="65.4707" y2="-88.3231" gradientUnits="userSpaceOnUse">
<stop/>
<stop offset="1" stop-color="white"/>
</linearGradient>
<linearGradient id="paint15_linear" x1="136.871" y1="93.4794" x2="65.4707" y2="-88.3231" gradientUnits="userSpaceOnUse">
<stop stop-color="#97C3F9"/>
<stop offset="1" stop-color="#93C1F9"/>
</linearGradient>
<linearGradient id="paint16_linear" x1="49.3157" y1="127.866" x2="-22.0859" y2="-53.9374" gradientUnits="userSpaceOnUse">
<stop/>
<stop offset="1" stop-color="white"/>
</linearGradient>
<linearGradient id="paint17_linear" x1="49.3157" y1="127.866" x2="-22.0859" y2="-53.9374" gradientUnits="userSpaceOnUse">
<stop stop-color="#97C3F9"/>
<stop offset="1" stop-color="#93C1F9"/>
</linearGradient>
<linearGradient id="paint18_linear" x1="75.5201" y1="117.575" x2="4.11849" y2="-64.2288" gradientUnits="userSpaceOnUse">
<stop/>
<stop offset="1" stop-color="white"/>
</linearGradient>
<linearGradient id="paint19_linear" x1="75.5201" y1="117.575" x2="4.11849" y2="-64.2288" gradientUnits="userSpaceOnUse">
<stop stop-color="#97C3F9"/>
<stop offset="1" stop-color="#93C1F9"/>
</linearGradient>
<linearGradient id="paint20_linear" x1="101.724" y1="107.283" x2="30.3227" y2="-74.5205" gradientUnits="userSpaceOnUse">
<stop/>
<stop offset="1" stop-color="white"/>
</linearGradient>
<linearGradient id="paint21_linear" x1="101.724" y1="107.283" x2="30.3227" y2="-74.5205" gradientUnits="userSpaceOnUse">
<stop stop-color="#97C3F9"/>
<stop offset="1" stop-color="#93C1F9"/>
</linearGradient>
<linearGradient id="paint22_linear" x1="127.929" y1="96.9919" x2="56.5271" y2="-84.812" gradientUnits="userSpaceOnUse">
<stop/>
<stop offset="1" stop-color="white"/>
</linearGradient>
<linearGradient id="paint23_linear" x1="127.929" y1="96.9919" x2="56.5271" y2="-84.812" gradientUnits="userSpaceOnUse">
<stop stop-color="#97C3F9"/>
<stop offset="1" stop-color="#93C1F9"/>
</linearGradient>
<linearGradient id="paint24_linear" x1="40.3734" y1="131.379" x2="-31.0283" y2="-50.4253" gradientUnits="userSpaceOnUse">
<stop/>
<stop offset="1" stop-color="white"/>
</linearGradient>
<linearGradient id="paint25_linear" x1="40.3734" y1="131.379" x2="-31.0283" y2="-50.4253" gradientUnits="userSpaceOnUse">
<stop stop-color="#97C3F9"/>
<stop offset="1" stop-color="#93C1F9"/>
</linearGradient>
<linearGradient id="paint26_linear" x1="66.5777" y1="121.087" x2="-4.82391" y2="-60.7168" gradientUnits="userSpaceOnUse">
<stop/>
<stop offset="1" stop-color="white"/>
</linearGradient>
<linearGradient id="paint27_linear" x1="66.5777" y1="121.087" x2="-4.82391" y2="-60.7168" gradientUnits="userSpaceOnUse">
<stop stop-color="#97C3F9"/>
<stop offset="1" stop-color="#93C1F9"/>
</linearGradient>
<linearGradient id="paint28_linear" x1="92.782" y1="110.795" x2="21.3804" y2="-71.0084" gradientUnits="userSpaceOnUse">
<stop/>
<stop offset="1" stop-color="white"/>
</linearGradient>
<linearGradient id="paint29_linear" x1="92.782" y1="110.795" x2="21.3804" y2="-71.0084" gradientUnits="userSpaceOnUse">
<stop stop-color="#97C3F9"/>
<stop offset="1" stop-color="#93C1F9"/>
</linearGradient>
<linearGradient id="paint30_linear" x1="118.986" y1="100.504" x2="47.5847" y2="-81.3" gradientUnits="userSpaceOnUse">
<stop/>
<stop offset="1" stop-color="white"/>
</linearGradient>
<linearGradient id="paint31_linear" x1="118.986" y1="100.504" x2="47.5847" y2="-81.3" gradientUnits="userSpaceOnUse">
<stop stop-color="#97C3F9"/>
<stop offset="1" stop-color="#93C1F9"/>
</linearGradient>
<linearGradient id="paint32_linear" x1="31.431" y1="134.89" x2="-39.9706" y2="-46.9134" gradientUnits="userSpaceOnUse">
<stop/>
<stop offset="1" stop-color="white"/>
</linearGradient>
<linearGradient id="paint33_linear" x1="31.431" y1="134.89" x2="-39.9706" y2="-46.9134" gradientUnits="userSpaceOnUse">
<stop stop-color="#97C3F9"/>
<stop offset="1" stop-color="#93C1F9"/>
</linearGradient>
<linearGradient id="paint34_linear" x1="57.6353" y1="124.599" x2="-13.7663" y2="-57.2047" gradientUnits="userSpaceOnUse">
<stop/>
<stop offset="1" stop-color="white"/>
</linearGradient>
<linearGradient id="paint35_linear" x1="57.6353" y1="124.599" x2="-13.7663" y2="-57.2047" gradientUnits="userSpaceOnUse">
<stop stop-color="#97C3F9"/>
<stop offset="1" stop-color="#93C1F9"/>
</linearGradient>
<linearGradient id="paint36_linear" x1="83.8397" y1="114.307" x2="12.438" y2="-67.4964" gradientUnits="userSpaceOnUse">
<stop/>
<stop offset="1" stop-color="white"/>
</linearGradient>
<linearGradient id="paint37_linear" x1="83.8397" y1="114.307" x2="12.438" y2="-67.4964" gradientUnits="userSpaceOnUse">
<stop stop-color="#97C3F9"/>
<stop offset="1" stop-color="#93C1F9"/>
</linearGradient>
<linearGradient id="paint38_linear" x1="110.044" y1="104.016" x2="38.6424" y2="-77.7879" gradientUnits="userSpaceOnUse">
<stop/>
<stop offset="1" stop-color="white"/>
</linearGradient>
<linearGradient id="paint39_linear" x1="110.044" y1="104.016" x2="38.6424" y2="-77.7879" gradientUnits="userSpaceOnUse">
<stop stop-color="#97C3F9"/>
<stop offset="1" stop-color="#93C1F9"/>
</linearGradient>
</defs>
</svg>
